# File created by Blade
# Date/Time:  Tue Sep 30 19:08:11 2014
#---------------------------------------------------------
:version 1.10
:name HOM
:units
  mass 1.0
  length 1.000000
  angle deg
:documentation
     Acclaim Skeleton File
:root
   axis xyz
   order TX TY TZ RX RY RZ
   position 0.000000 0.000000 0.000000
   orientation 0 0 0
:bonedata
   begin
      id 1
      name Spine_dum
      direction 0.000000 1.000000 0.000000
      length 7.508948
      axis 0.0 0.0 0.0 xyz
   end
   begin
      id 2
      name LeftUpLeg_dum
      direction 1.000000 0.000000 0.000000
      length 3.000560
      axis 0.0 0.0 0.0 xyz
   end
   begin
      id 3
      name RightUpLeg_dum
      direction -1.000000 0.000000 0.000000
      length 3.000560
      axis 0.0 0.0 0.0 xyz
   end
   begin
      id 4
      name Spine
      direction 0.000000 1.000000 0.000000
      length 0.000000
      axis 0.0 0.0 0.0 xyz
      dof rx ry rz
   end
   begin
      id 5
      name Spine_dum1
      direction 0.000000 1.000000 0.000000
      length 13.861154
      axis 0.0 0.0 0.0 xyz
   end
   begin
      id 6
      name Spine_dum2
      direction 0.000000 1.000000 0.000000
      length 8.204781
      axis 0.0 0.0 0.0 xyz
   end
   begin
      id 7
      name Spine_dum3
      direction 0.000000 1.000000 0.000000
      length 8.204781
      axis 0.0 0.0 0.0 xyz
   end
   begin
      id 8
      name Head
      direction 0.000000 1.000000 0.000000
      length 4.527550
      axis 0.0 0.0 0.0 xyz
      dof rx ry rz
   end
   begin
      id 9
      name LeftShoulder
      direction 1.000000 0.000000 0.000000
      length 6.635956
      axis 0.0 0.0 -90.0 xyz
      dof rx ry rz
   end
   begin
      id 10
      name LeftArm
      direction 1.000000 0.000000 0.000000
      length 10.274218
      axis 0.0 0.0 -90.0 xyz
      dof rx ry rz
   end
   begin
      id 11
      name LeftForeArm
      direction 1.000000 0.000000 0.000000
      length 8.522147
      axis 0.0 0.0 -90.0 xyz
      dof ry rz rx
   end
   begin
      id 12
      name LeftHand
      direction 0.000000 0.000000 0.000000
      length 0.000000
      axis 0.0 0.0 -90.0 xyz
      dof rx ry rz
   end
   begin
      id 13
      name LeftHand_dum1
      direction 0.000000 0.000000 0.000000
      length 0.000000
      axis 0.0 0.0 -90.0 xyz
   end
   begin
      id 14
      name LeftHand_dum2
      direction 1.000000 0.000000 0.000000
      length 3.937000
      axis 0.0 0.0 -90.0 xyz
   end
   begin
      id 15
      name LeftHandThumb1
      direction 0.000000 0.000000 1.000000
      length 3.937000
      axis 0.0 0.0 -90.0 xyz
      dof rx rz ry
   end
   begin
      id 16
      name RightShoulder
      direction -1.000000 0.000000 0.000000
      length 6.635956
      axis 0.0 0.0 90.0 xyz
      dof rx ry rz
   end
   begin
      id 17
      name RightArm
      direction -1.000000 0.000000 0.000000
      length 10.274218
      axis 0.0 0.0 90.0 xyz
      dof rx ry rz
   end
   begin
      id 18
      name RightForeArm
      direction -1.000000 0.000000 0.000000
      length 8.522147
      axis 0.0 0.0 90.0 xyz
      dof ry rz rx
   end
   begin
      id 19
      name RightHand
      direction 0.000000 0.000000 0.000000
      length 0.000000
      axis 0.0 0.0 90.0 xyz
      dof rx ry rz
   end
   begin
      id 20
      name RightHand_dum1
      direction 0.000000 0.000000 0.000000
      length 0.000000
      axis 0.0 0.0 90.0 xyz
   end
   begin
      id 21
      name RightHand_dum2
      direction -1.000000 0.000000 0.000000
      length 3.937000
      axis 0.0 0.0 90.0 xyz
   end
   begin
      id 22
      name RightHandThumb1
      direction 0.000000 0.000000 1.000000
      length 3.937000
      axis 0.0 0.0 90.0 xyz
      dof rx rz ry
   end
   begin
      id 23
      name LeftUpLeg
      direction 0.000000 -1.000000 0.000000
      length 16.490845
      axis 0.0 0.0 0.0 xyz
      dof rx ry rz
   end
   begin
      id 24
      name LeftLeg
      direction 0.000000 -1.000000 0.000000
      length 14.556576
      axis 0.0 0.0 0.0 xyz
      dof rx ry rz
   end
   begin
      id 25
      name LeftFoot
      direction 0.000000 -0.258819 0.965926
      length 4.831116
      axis 15.0 0.0 0.0 xyz
      dof rx ry rz
   end
   begin
      id 26
      name LeftToeBase
      direction 0.000000 0.000000 1.000000
      length 2.952750
      axis 0.0 0.0 0.0 xyz
      dof rx ry rz
   end
   begin
      id 27
      name RightUpLeg
      direction 0.000000 -1.000000 0.000000
      length 16.490845
      axis 0.0 0.0 0.0 xyz
      dof rx ry rz
   end
   begin
      id 28
      name RightLeg
      direction 0.000000 -1.000000 0.000000
      length 14.556576
      axis 0.0 0.0 0.0 xyz
      dof rx ry rz
   end
   begin
      id 29
      name RightFoot
      direction 0.000000 -0.258819 0.965926
      length 4.831116
      axis 15.0 0.0 0.0 xyz
      dof rx ry rz
   end
   begin
      id 30
      name RightToeBase
      direction 0.000000 0.000000 1.000000
      length 2.952750
      axis 0.0 0.0 0.0 xyz
      dof rx ry rz
   end
:hierarchy
   begin
      root Spine_dum LeftUpLeg_dum RightUpLeg_dum
      Spine_dum Spine
      LeftUpLeg_dum LeftUpLeg
      RightUpLeg_dum RightUpLeg
      Spine Spine_dum1 Spine_dum2 Spine_dum3
      Spine_dum1 Head
      Spine_dum2 LeftShoulder
      Spine_dum3 RightShoulder
      LeftShoulder LeftArm
      LeftArm LeftForeArm
      LeftForeArm LeftHand
      LeftHand LeftHand_dum1 LeftHand_dum2
      LeftHand_dum1 LeftHandThumb1
      RightShoulder RightArm
      RightArm RightForeArm
      RightForeArm RightHand
      RightHand RightHand_dum1 RightHand_dum2
      RightHand_dum1 RightHandThumb1
      LeftUpLeg LeftLeg
      LeftLeg LeftFoot
      LeftFoot LeftToeBase
      RightUpLeg RightLeg
      RightLeg RightFoot
      RightFoot RightToeBase
   end

# File created by Blade
# Date/Time:  Thu Sep 25 21:01:51 2014
# Frame Rate: 120.000 fps
#------------------------------------------------------
:FULLY-SPECIFIED
:DEGREES
1
root -4.001082 32.880082 -1.366671 13.343762 -1.580078 -1.012350
Spine -14.200231 5.944439 -0.462568
Head -12.977419 -7.216760 9.808291
LeftShoulder -12.271342 20.011488 27.530404
LeftArm 17.139951 -23.667979 -33.161877
LeftForeArm 9.508541 -0.000000 12.766473
LeftHand -24.443517 -0.000000 -5.054754
LeftHandThumb1 -26.253704 0.000000 33.147579
RightShoulder -19.707253 11.243773 -37.624367
RightArm -2.047709 4.510093 30.631456
RightForeArm -28.066721 0.000000 13.929957
RightHand -9.086519 -0.000000 6.433679
RightHandThumb1 -24.326973 -0.000000 -32.862282
LeftUpLeg -8.346428 5.483966 0.755825
LeftLeg 0.056107 -0.000000 -0.000000
LeftFoot -11.571809 6.364977 -13.001329
LeftToeBase 10.932682 -0.000000 -0.000000
RightUpLeg -10.311932 -2.464293 0.562110
RightLeg 3.928814 -0.000000 -0.000000
RightFoot -10.798981 -4.960743 3.144837
RightToeBase 4.477766 -0.000000 -0.000000
2
root -4.003392 32.879931 -1.365707 13.349344 -1.583172 -1.022985
Spine -14.209072 5.946699 -0.460558
Head -12.939397 -7.228355 9.807502
LeftShoulder -12.278409 20.023539 27.534193
LeftArm 17.161485 -23.680047 -33.166169
LeftForeArm 9.515755 -0.000000 12.762604
LeftHand -24.483621 -0.000000 -5.045498
LeftHandThumb1 -26.253704 0.000000 33.147579
RightShoulder -19.689538 11.242931 -37.614970
RightArm -2.062729 4.500980 30.629732
RightForeArm -28.055072 -0.000000 13.932882
RightHand -9.088776 0.000000 6.430258
RightHandThumb1 -24.326973 -0.000000 -32.862282
LeftUpLeg -8.347588 5.477154 0.765092
LeftLeg 0.062439 -0.000000 -0.000000
LeftFoot -11.598714 6.390899 -13.041434
LeftToeBase 10.938421 -0.000000 -0.000000
RightUpLeg -10.339477 -2.542599 0.589697
RightLeg 3.974720 -0.000000 -0.000000
RightFoot -10.797319 -4.914650 3.070605
RightToeBase 4.418958 -0.000000 -0.000000
3
root -4.005732 32.879997 -1.364823 13.353998 -1.576775 -1.024386
Spine -14.212898 5.946351 -0.465039
Head -12.893077 -7.234951 9.792134
LeftShoulder -12.265851 20.008851 27.537222
LeftArm 17.139192 -23.664770 -33.144092
LeftForeArm 9.514329 -0.000000 12.779765
LeftHand -24.451531 0.000000 -5.044310
LeftHandThumb1 -26.253704 0.000000 33.147579
RightShoulder -19.693011 11.235080 -37.588278
RightArm -2.040992 4.499979 30.607593
RightForeArm -28.032335 -0.000000 13.911991
RightHand -9.002167 0.000000 6.386066
RightHandThumb1 -24.326973 -0.000000 -32.862282
LeftUpLeg -8.347408 5.466293 0.772169
LeftLeg 0.056547 -0.000000 -0.000000
LeftFoot -11.592954 6.402340 -13.053928
LeftToeBase 10.889705 -0.000000 -0.000000
RightUpLeg -10.340454 -2.545172 0.594695
RightLeg 3.974431 -0.000000 -0.000000
RightFoot -10.815131 -4.880953 3.123156
RightToeBase 4.490227 -0.000000 -0.000000
4
root -4.007070 32.879055 -1.363030 13.348585 -1.574060 -1.015452
Spine -14.204678 5.947962 -0.488495
Head -12.854612 -7.244915 9.814657
LeftShoulder -12.268054 20.020481 27.540925
LeftArm 17.163473 -23.645332 -33.122202
LeftForeArm 9.504124 -0.000000 12.765240
LeftHand -24.460128 -0.000000 -5.047488
LeftHandThumb1 -26.253704 0.000000 33.147579
RightShoulder -19.701999 11.229315 -37.573155
RightArm -2.034213 4.509366 30.607843
RightForeArm -28.011692 -0.000000 13.915985
RightHand -9.028267 -0.000000 6.383815
RightHandThumb1 -24.326973 -0.000000 -32.862282
LeftUpLeg -8.336100 5.480846 0.771592
LeftLeg 0.043000 -0.000000 -0.000000
LeftFoot -11.569901 6.360131 -13.011576
LeftToeBase 10.895763 -0.000000 -0.000000
RightUpLeg -10.290244 -2.458725 0.570220
RightLeg 3.890763 -0.000000 -0.000000
RightFoot -10.798788 -4.936878 3.188883
RightToeBase 4.490119 -0.000000 -0.000000
5
root -4.010031 32.879249 -1.361952 13.352547 -1.568397 -1.027647
Spine -14.207196 5.952833 -0.481276
Head -12.813354 -7.255170 9.803643
LeftShoulder -12.267539 20.026111 27.539359
LeftArm 17.184673 -23.663248 -33.127722
LeftForeArm 9.568436 -0.000000 12.771478
LeftHand -24.493929 -0.000000 -5.030198
LeftHandThumb1 -26.253704 0.000000 33.147579
RightShoulder -19.711847 11.236085 -37.572439
RightArm -2.034699 4.520806 30.606761
RightForeArm -28.043520 -0.000000 13.911730
RightHand -8.990557 -0.000000 6.410586
RightHandThumb1 -24.326973 -0.000000 -32.862282
LeftUpLeg -8.339834 5.482747 0.783933
LeftLeg 0.050552 -0.000000 -0.000000
LeftFoot -11.585574 6.379327 -13.042538
LeftToeBase 10.846874 -0.000000 -0.000000
RightUpLeg -10.284610 -2.456631 0.581017
RightLeg 3.876017 -0.000000 -0.000000
RightFoot -10.780742 -4.904356 3.225200
RightToeBase 4.448245 -0.000000 -0.000000
6
root -4.012495 32.879134 -1.360265 13.353284 -1.561198 -1.037758
Spine -14.207802 5.941263 -0.469836
Head -12.766696 -7.254054 9.791328
LeftShoulder -12.270799 20.020444 27.527985
LeftArm 17.180784 -23.665480 -33.106724
LeftForeArm 9.611671 -0.000000 12.776492
LeftHand -24.486968 -0.000000 -5.030131
LeftHandThumb1 -26.253704 0.000000 33.147579
RightShoulder -19.706504 11.243252 -37.563768
RightArm -2.030366 4.539441 30.601487
RightForeArm -28.049390 -0.000000 13.920377
RightHand -9.005905 -0.000000 6.452461
RightHandThumb1 -24.326973 -0.000000 -32.862282
LeftUpLeg -8.335903 5.491067 0.804923
LeftLeg 0.040761 -0.000000 -0.000000
LeftFoot -11.580055 6.338217 -13.011682
LeftToeBase 10.923728 -0.000000 -0.000000
RightUpLeg -10.285492 -2.462868 0.598194
RightLeg 3.886841 -0.000000 -0.000000
RightFoot -10.790306 -4.902464 3.216513
RightToeBase 4.446893 -0.000000 -0.000000
7
root -4.014419 32.878880 -1.358881 13.356047 -1.551921 -1.036832
Spine -14.213350 5.936503 -0.477493
Head -12.714130 -7.258982 9.786654
LeftShoulder -12.269104 20.023675 27.528563
LeftArm 17.185142 -23.588317 -33.066111
LeftForeArm 9.578957 0.000000 12.777347
LeftHand -24.537294 -0.000000 -4.956069
LeftHandThumb1 -26.253704 0.000000 33.147579
RightShoulder -19.711402 11.226476 -37.570169
RightArm -2.021149 4.575948 30.637451
RightForeArm -28.022196 -0.000000 13.918230
RightHand -9.031801 -0.000000 6.383266
RightHandThumb1 -24.326973 -0.000000 -32.862282
LeftUpLeg -8.334557 5.494387 0.808321
LeftLeg 0.034364 -0.000000 -0.000000
LeftFoot -11.570082 6.317393 -13.036768
LeftToeBase 10.885229 -0.000000 -0.000000
RightUpLeg -10.284340 -2.469856 0.602361
RightLeg 3.883193 -0.000000 -0.000000
RightFoot -10.765111 -4.937254 3.158244
RightToeBase 4.367499 -0.000000 -0.000000
